<svg xmlns="http://www.w3.org/2000/svg" fill="none" viewBox="0 0 345 307"><path fill="#22C55E" d="M186.755 9.64258h3.844c14.527.00354 28.458 5.77682 38.728 16.05002 10.271 10.2733 16.041 24.2053 16.041 38.7322V168.935H131.956V64.4248c0-7.1955 1.418-14.3206 4.172-20.9681 2.754-6.6476 6.79-12.6875 11.879-17.7747 5.089-5.0872 11.13-9.1221 17.779-11.8742 6.648-2.752 13.773-4.16741 20.969-4.16522Z"/><path fill="#CA7358" d="M209.253 106.024v64.537h-50.324v-64.537h50.324Zm1.334-1.334h-52.992v67.205h52.992V104.69Z"/><path fill="#CA7358" d="M210.587 104.687h-52.992v13.893h52.992v-13.893Z"/><path fill="#CA7358" d="M157.312 71.1256v99.7584h-30.29V71.1256h30.29Zm1.333-1.3336h-32.957v102.426h32.957V69.792ZM250.852 50.9313V170.561H210.87V50.9313h39.982Zm1.334-1.3336h-42.649V171.895h42.649V49.5977Z"/><path fill="#CA7358" d="M226.874 65.9146h.383c1.449 0 2.838.5753 3.862 1.5995s1.599 2.4133 1.599 3.8617v12.3094h-11.309V71.3758c0-.7175.142-1.4279.416-2.0907.275-.6628.677-1.265 1.185-1.7722.507-.5071 1.11-.9093 1.773-1.1836.663-.2743 1.373-.4152 2.091-.4147Z"/><path stroke="#22C55E" stroke-linecap="round" stroke-linejoin="round" stroke-width="1.33363" d="M220.119 75.6069h13.893"/><path fill="#F5EBDD" d="M226.874 97.7954h.383c1.449 0 2.838.5754 3.862 1.5996 1.024 1.024 1.599 2.413 1.599 3.862v12.309h-11.309v-12.309c0-.718.142-1.428.416-2.091.275-.663.677-1.2651 1.185-1.7722.507-.5072 1.11-.9094 1.773-1.1836.663-.2743 1.373-.4152 2.091-.4148Z"/><path stroke="#22C55E" stroke-linecap="round" stroke-linejoin="round" stroke-width="1.33363" d="M220.119 107.487h13.893"/><path fill="#F5EBDD" d="M226.874 129.676h.383c1.449 0 2.838.575 3.862 1.599 1.024 1.025 1.599 2.414 1.599 3.862v12.309h-11.309v-12.309c0-1.448.576-2.837 1.6-3.862 1.024-1.024 2.413-1.599 3.861-1.599h.004Z"/><path stroke="#22C55E" stroke-linecap="round" stroke-linejoin="round" stroke-width="1.33363" d="M220.119 139.368h13.893"/><path fill="#30232A" d="M226.874 161.556h.383c1.449 0 2.838.576 3.862 1.6s1.599 2.413 1.599 3.861v11.31h-11.309v-11.31c0-.717.142-1.428.416-2.09.275-.663.677-1.265 1.185-1.772.507-.508 1.11-.91 1.773-1.184.663-.274 1.373-.415 2.091-.415Z"/><path fill="#CA7358" d="M252.186 49.5977h-42.649v5.3311h42.649v-5.3311ZM158.645 67.2085h-32.957v5.3312h32.957v-5.3312Z"/><path fill="#F5EBDD" d="M178.436 131.182h-11.309v14.54h11.309v-14.54Z"/><path stroke="#22C55E" stroke-linecap="round" stroke-linejoin="round" stroke-width="1.33363" d="M165.834 137.644h13.896M172.782 146.369v-8.725"/><path fill="#CA7358" d="M178.436 157.442h-11.309v14.54h11.309v-14.54Z"/><path stroke="#22C55E" stroke-linecap="round" stroke-linejoin="round" stroke-width="1.33363" d="M165.834 163.903h13.896M172.782 172.628v-8.725"/><path fill="#30232A" d="M199.761 131.182h-11.309v14.54h11.309v-14.54Z"/><path stroke="#22C55E" stroke-linecap="round" stroke-linejoin="round" stroke-width="1.33363" d="M187.162 137.644h13.893M194.106 146.369v-8.725"/><path fill="#F5EBDD" d="M199.761 157.442h-11.309v14.54h11.309v-14.54Z"/><path stroke="#22C55E" stroke-linecap="round" stroke-linejoin="round" stroke-width="1.33363" d="M187.162 163.903h13.893M194.106 172.628v-8.725"/><path fill="#F5EBDD" d="M165.107 49.1138c4.64 0 8.402-3.7617 8.402-8.4019s-3.762-8.4018-8.402-8.4018c-4.641 0-8.402 3.7616-8.402 8.4018s3.761 8.4019 8.402 8.4019ZM259.908 168.987H117.416v9.692h142.492v-9.692Z"/><path fill="#F5EBDD" d="M190.912 0h-4.491c-35.427 0-64.147 28.7197-64.147 64.1476V178.68h132.799V64.1476C255.063 28.7197 226.34 0 190.912 0Zm-7.094 168.988h-51.862V88.2096h51.862v80.7784Zm0-90.4705h-51.862V64.4777c.001-14.0235 5.379-27.5129 15.027-37.69 9.648-10.1772 22.831-16.2671 36.835-17.01553V78.5175Zm61.55 90.4705H193.51V88.2096h51.858v80.7784Zm0-90.4705H193.51V9.77217c14.003.74853 27.186 6.83853 36.833 17.01573 9.648 10.1772 15.025 23.6666 15.025 37.6898v14.0398Z"/><path fill="#22C55E" d="M12.9229 306.308c7.1371 0 12.9228-5.786 12.9228-12.923 0-7.137-5.7857-12.923-12.9228-12.923C5.78577 280.462 0 286.248 0 293.385c0 7.137 5.78577 12.923 12.9229 12.923Z"/><path fill="#FF9767" d="M301.13 188.042c.002.357-.07.71-.213 1.037-1 2.277-5.275 2.614-9.526.75-3.56-1.557-5.981-4.164-6.084-6.308v28.433h15.833v-23.912h-.01Z"/><path fill="#CA7358" d="M295.042 181.591c-4.251-1.864-8.518-1.527-9.525.75-.162.374-.234.78-.21 1.187.103 2.144 2.524 4.751 6.084 6.308 4.251 1.864 8.519 1.527 9.526-.75.143-.327.215-.68.213-1.037.01-2.171-2.44-4.865-6.088-6.458Z"/><path fill="#FF9767" d="M313.27 197.42c-.104 2.144-2.524 4.751-6.085 6.312-4.254 1.86-8.519 1.527-9.529-.754-.141-.326-.214-.678-.213-1.033v10.002h15.83V197.42h-.003Z"/><path fill="#CA7358" d="M313.06 196.233c-1.001-2.277-5.275-2.614-9.529-.75-3.644 1.597-6.095 4.288-6.088 6.462-.001.355.072.707.213 1.033 1 2.281 5.275 2.614 9.529.754 3.561-1.561 5.981-4.168 6.085-6.312.024-.406-.048-.813-.21-1.187Z"/><path stroke="#CA7358" stroke-linecap="round" stroke-miterlimit="10" stroke-width="1.33363" d="M297.906 211.961v-9.692"/><path stroke="#30232A" stroke-linecap="round" stroke-linejoin="round" stroke-width="1.33363" d="M293.222 179.487v5.494M305.358 193.383v5.814"/><path fill="#30232A" d="M225.43 306.401c-.404.001-.803-.095-1.163-.279-.36-.183-.671-.45-.908-.777-.237-.328-.393-.707-.455-1.106-.061-.4-.028-.808.099-1.192l8.002-24.385c.169-.511.494-.956.931-1.272.436-.315.961-.485 1.499-.485h5.608c.446-.001.884.116 1.27.337.387.221.709.54.934.924.226.384.347.821.352 1.266.004.446-.108.885-.325 1.274l-13.623 24.385c-.221.396-.543.726-.933.956-.39.231-.835.353-1.288.354ZM332.627 306.401c.404.001.803-.095 1.163-.279.36-.183.671-.45.908-.777.237-.328.393-.707.455-1.106.062-.4.028-.808-.099-1.192l-8.001-24.385c-.169-.511-.494-.955-.93-1.271-.436-.315-.96-.485-1.498-.486h-5.611c-.445 0-.882.117-1.268.339-.386.221-.708.54-.933.924-.226.384-.347.82-.352 1.265-.005.445.106.884.323 1.273l13.623 24.385c.221.396.543.725.933.956.39.23.834.352 1.287.354Z"/><path fill="#CA7358" d="M345 211.96H213.494v75.284H345V211.96Z"/><path fill="#22C55E" d="M335.305 221.653H223.186v55.899h112.119v-55.899Z"/><path stroke="#CA7358" stroke-miterlimit="10" stroke-width="1.33363" d="M279.125 220.686v57.836"/><path fill="#30232A" d="M292.338 252.989c1.871 0 3.388-1.516 3.388-3.387s-1.517-3.388-3.388-3.388-3.387 1.517-3.387 3.388 1.516 3.387 3.387 3.387ZM266.152 252.989c1.871 0 3.388-1.516 3.388-3.387s-1.517-3.388-3.388-3.388c-1.87 0-3.387 1.517-3.387 3.388s1.517 3.387 3.387 3.387Z"/><path fill="#CA7358" d="M51.9849 275.061v5.491h47.4972v-5.491H51.9849Z"/><path fill="#FF9767" d="m107.307 303.561-11.7658-70.599h7.1948c.771 0 1.511-.306 2.056-.851.545-.546.851-1.285.851-2.056 0-.771-.306-1.511-.851-2.056-.545-.545-1.285-.852-2.056-.852H48.7875c-.7711 0-1.5105.307-2.0558.852-.5452.545-.8515 1.285-.8515 2.056 0 .771.3063 1.51.8515 2.056.5453.545 1.2847.851 2.0558.851h7.1383l-11.766 70.599c-.0581.35-.0394.708.0549 1.049.0942.342.2617.659.4907.929.2291.27.5143.488.8358.637.3214.148.6715.226 1.0258.226.557 0 1.0973-.19 1.5311-.54.4337-.349.7347-.836.8528-1.381l15.5901-71.519h22.385l15.587 71.519c.119.545.421 1.032.855 1.381s.975.54 1.532.54c.354 0 .704-.078 1.026-.226.321-.149.607-.367.836-.637.229-.27.396-.587.49-.929.095-.341.113-.699.055-1.049Z"/><path fill="#CA7358" d="M102.736 232.962c.771 0 1.511-.306 2.056-.851.545-.546.851-1.285.851-2.056 0-.771-.306-1.511-.851-2.056-.545-.545-1.285-.852-2.056-.852H48.7875c-.771 0-1.5105.307-2.0558.852-.5452.545-.8515 1.285-.8515 2.056 0 .771.3063 1.51.8515 2.056.5453.545 1.2848.851 2.0558.851h7.1383v.09h8.6086l.02-.09h22.3849l.02.09h8.6086v-.09h7.1681Z"/><path fill="#1E95A6" d="M105.934 274.968h34.34c.427-7.292 1.951-16.964 3.215-30.03 1.123-11.586 2.09-21.312 2.027-29.34-.107-13.383-34.341 2.814-34.341 2.814 0 2.924.59 5.731.606 8.452.04 7.068-3.54 13.082-6.098 21.608-3.877 12.926-.646 26.496-.646 26.496h.897Z"/><path fill="#3EC1F3" d="M142.105 302.755h-30.063c-.418.132-.774.41-1.004.782-.231.373-.321.815-.254 1.248.066.433.286.828.618 1.113.332.286.755.443 1.193.444l44.24.06c.39-4.301-2.054-7.538-8.949-12.336-3.934 3.411-5.781 8.689-5.781 8.689Z"/><path fill="#CA7358" d="M146.336 293.022c-1.428-.923-2.662-2.117-3.631-3.514-2.334-3.424-2.827-8.035-2.444-14.54h-29.76c.058 4.863.408 9.719 1.05 14.54.761 5.458 1.788 9.212 2.611 13.159h-1.564c-.189 0-.376.029-.556.087h30.063s1.847-5.278 5.781-8.669c-.493-.349-1.01-.703-1.55-1.063Z"/><path stroke="#30232A" stroke-linecap="round" stroke-linejoin="round" stroke-width="1.33363" d="M140.621 269.126c-1.84-3.663-3.095-7.593-3.717-11.646-2.177-15.126-.887-22.881-7.025-29.673h-17.961"/><path fill="#1E95A6" d="m151.82 276.258.034.08 26.512-12.416c-2.063-6.174-4.221-14.39-7.765-25.142-3.32-10.062-5.518-17.581-7.598-23.399-2.91 2.096-6.498 3.029-10.059 2.615-3.562-.414-6.841-2.144-9.192-4.851-2.352-2.707-3.607-6.195-3.519-9.78.089-3.585 1.514-7.007 3.996-9.595-14.153-6.395-64.4213-10.566-64.4213-10.566l-28.4363-4.201c-1.5003 2.481-2.7773 6.412-3.4707 11.003h9.9355v10.626c-.0053 2.148-.8621 4.207-2.3826 5.725-1.5204 1.518-3.5807 2.371-5.7292 2.373h-.9636c2.714 10.002 9.6955 18.427 23.9454 18.427h57.5128c6.138 6.785 4.848 14.54 7.025 29.674 1.78 12.379 10.219 21.504 10.219 21.504l4.357-2.077Z"/><path fill="#3EC1F3" d="m192.209 290.478-26.405 11.976c-.448.312-.761.782-.878 1.314-.118.533-.03 1.09.244 1.562.275.471.716.822 1.238.983.521.161 1.084.12 1.576-.115l40.069-18.671c-1.57-4.334-5.608-6.001-15.173-7.668l-.411-.077c-.792 3.513-.881 7.149-.26 10.696Z"/><path fill="#CA7358" d="M192.469 279.769c-2.754-.527-4.914-1.444-6.698-2.831-3.287-2.56-5.301-6.728-7.405-13.002l-26.512 12.416c2.247 5.164 5.401 10.595 8.405 15.336 2.624 4.128 5.128 7.725 6.811 10.136l-.956.463c-.109.053-.213.116-.311.187l26.406-11.976c-.625-3.558-.537-7.205.26-10.729Z"/><path fill="#3EC1F3" d="M154.608 218.098c3.015.002 5.953-.949 8.395-2.717-4.138-11.629-7.725-16.474-18.574-21.521l-.2-.09c-1.951 2.033-3.26 4.595-3.766 7.367-.506 2.772-.187 5.631.919 8.223 1.106 2.591 2.949 4.801 5.301 6.353 2.351 1.553 5.107 2.38 7.925 2.379v.006ZM49.7244 208.73c2.1525 0 4.217-.855 5.7394-2.377 1.5224-1.521 2.3782-3.585 2.379-5.738v-10.626h-9.9355c-.8769 5.765-.8269 12.546.8535 18.731h.3968l.5668.01Z"/><path stroke="#30232A" stroke-linecap="round" stroke-linejoin="round" stroke-width="1.33363" d="M129.729 227.954h9.692M171.418 125.205s-17.447-20.031-38.062-27.2963"/><path fill="#1E95A6" d="M116.693 105.734c-.634-1.531 1.48-3.931 5.001-5.9583-4.768-1.1869-8.155-3.3974-7.815-5.2545.34-1.8571 4.287-2.7306 9.168-2.1572-2.567-3.134-3.697-6.128-2.564-7.3349 1.444-1.5437 6.025.4034 10.229 4.3343 3.668 3.4341 5.835 7.2549 5.375 9.1987-.257 1.9809-3.634 4.7879-8.275 6.7079-5.338 2.214-10.309 2.421-11.119.464Z"/><path fill="#30232A" d="M136.26 104.783c3.363 0 6.088-2.725 6.088-6.0876 0-3.3623-2.725-6.088-6.088-6.088-3.362 0-6.088 2.7257-6.088 6.088 0 3.3626 2.726 6.0876 6.088 6.0876Z"/><path fill="#30232A" d="M149.088 106.537c1.672-.621.912-6.8246-1.699-13.8554-2.61-7.0309-6.082-12.227-7.755-11.606-1.673.6211-.913 6.8242 1.698 13.8551 2.611 7.0313 6.083 12.2273 7.756 11.6063Z"/><path stroke="#30232A" stroke-linecap="round" stroke-linejoin="round" stroke-width="1.33363" d="M148.79 107.758s2.587 7.108 1.293 14.54"/><path fill="#CA7358" d="M101.609 79.4443c-5.5143 6.2047-11.3756 7.5751-11.3756 7.5751-3.7909-4.1343-10.6691-4.1343-11.7193 1.7237-1.1436 6.4914 6.8849 8.2785 6.8849 8.2785s2.0237 8.3754-1.0803 12.5124c-2.7406 3.668-6.2614 4.271-13.4763 5.078 9.4021 15.887 19.0042 14.633 22.2016 14.633 7.668 0 9.829-8.898 10.432-13.486-1.746-.609-3.5272-1.111-5.3342-1.504l-1.0336-6.201s4.8248 1.72 8.9618-.69c4.138-2.411 5.171-6.895 3.791-13.7865-.817-4.0843-.787-9.1354-1.487-13.6497-2.731.4634-6.765-.4835-6.765-.4835ZM158.969 114.059c-1.464-5.858-12.923-9.036-12.923-9.036s.687-13.1492-2.264-13.5693c-2.261-.3334-4.524 5.1712-6.462 15.8333-2.167 11.916-.97 33.924-.97 33.924s-2.397-2.177-5.798-5.207c-.339.687-.861 1.267-1.507 1.679-.647.411-1.394.638-2.16.654.483.613.786 1.349.875 2.125.088.775-.042 1.56-.376 2.266s-.858 1.305-1.513 1.729c-.656.424-1.416.657-2.197.672.484.613.787 1.349.875 2.124.088.776-.042 1.561-.376 2.267-.333.705-.857 1.304-1.513 1.728-.655.424-1.416.657-2.197.673.508.643.816 1.421.886 2.237.07.817-.1 1.636-.49 2.357-.391.72-.983 1.311-1.705 1.698-.722.388-1.542.555-2.358.482 7.078 4.608 16.7 9.983 23.112 9.983 33.601-.014 20.031-50.742 19.061-54.619Z"/><path fill="#FF9767" d="M120.95 156.298c.334-.706.464-1.49.376-2.266-.088-.775-.39-1.511-.873-2.125.781-.015 1.542-.248 2.197-.672.656-.424 1.18-1.023 1.513-1.729.334-.705.464-1.49.376-2.266-.088-.776-.391-1.511-.875-2.124.781-.016 1.541-.248 2.197-.672.655-.425 1.179-1.023 1.513-1.729.334-.706.464-1.491.376-2.266-.089-.776-.392-1.512-.875-2.125.766-.017 1.513-.243 2.16-.654.646-.412 1.168-.993 1.507-1.68-5.861-5.221-14.7-12.962-19.404-16.44-2.277-1.684-5.178-2.931-7.668-3.791-.587 4.601-2.734 13.487-10.4027 13.487-3.184 0-12.7995 1.253-22.2016-14.634l-3.0206.334c-10.4023 1.157-15.1367 6.755-17.924 13.443-1.7237 4.137-3.104 11.719-3.104 11.719-1.0694 6.951-1.62 13.972-1.6471 21.005l13.5264 12.519 36.3147.897c2.9073-4.288 8.2419-12.206 10.0019-15.243 2.261-3.878 2.584-7.109 2.584-7.109s3.881 3.034 9.199 6.498c.852.075 1.707-.113 2.449-.537.743-.425 1.338-1.067 1.705-1.84Z"/><path fill="#30232A" d="M105.403 71.86c-4.134-5.1678-15.5097-8.6152-24.4717-2.0671-8.962 6.5481-8.2718 17.2338-7.9284 21.3714 0 0-9.6488-3.104-16.5437 4.1342-1.9954 2.0694-3.4486 4.5998-4.2304 7.3665-.7817 2.766-.8678 5.683-.2506 8.49 0 0-12.6961-.356-15.1667 11.376-1.4036 6.668 1.217 11.106 4.1243 13.853 1.7051 1.6 3.6971 2.864 5.8713 3.725 0 0 1.3803-7.582 3.104-11.72 2.7873-6.688 7.5217-12.286 17.924-13.443l3.0206-.333c7.215-.807 10.7358-1.42 13.4764-5.078 3.1007-4.138 1.0669-12.5127 1.0669-12.5127s-8.0385-1.7871-6.8949-8.2719c1.0369-5.8579 7.9284-5.8579 11.7193-1.7237 0 0 5.8613-1.377 11.3756-7.5817 0 0 4.034.9469 6.785.4835-.47-3.1074-1.297-5.958-2.981-8.0685Z"/><path stroke="#30232A" stroke-linecap="round" stroke-linejoin="round" stroke-width="2.66726" d="M159.686 118.663c-.977-.45-1.561-1.584-1.394-3.751 0 0-2.021 2.534-4.171 1.407-2.151-1.127-1.29-3.554-1.29-3.554s-1.941 1.294-3.554-.333c-1.464-1.464-.334-3.878-.334-3.878s-2.147.877-2.907-.647c-.957-1.907.207-3.904 1.467-5.434"/><path stroke="#30232A" stroke-linecap="round" stroke-miterlimit="10" stroke-width="1.33363" d="M51.3647 111.435c.3653 1.727 1.0239 3.379 1.9471 4.884"/><path stroke="#30232A" stroke-linecap="round" stroke-linejoin="round" stroke-width="1.33363" d="m135.703 141.628.811 10.072M106.464 141.031c2.11 3.801 2.083 8.362 1.81 11.066M87.3994 151.7l-10.3389.324M96.9316 108.691c-1.4449-.567-2.8545-1.221-4.221-1.957M99.5155 118.26l-.5635-3.571"/><path stroke="#30232A" stroke-linecap="round" stroke-miterlimit="10" stroke-width="1.33363" d="m72.3061 91.2935.7168 5.9613"/><path stroke="#30232A" stroke-linecap="round" stroke-linejoin="round" stroke-width="1.33363" d="M106.464 98.389c-.73.4735-3.151.6302-4.311-1.4803M87.076 91.6l-3.2307-1.6137M101.993 90.1704c-.517.7035-2.9543 2.0671-4.7881.5101M109.844 89.153c-.386.082-.784.0871-1.172.015-.388-.072-.757-.2199-1.088-.4351M105.473 90.353c.371.8369.727 1.7604.651 2.1138-.114.4298-.37.8083-.727 1.0736"/><path fill="#F5EBDD" d="m85.3056 95.505-4.411 4.1609c-.2388.2252-.4159.5081-.5144.8211-.0985.313-.1151.646-.0482.967.0669.322.215.621.4302.868.2153.248.4904.437.7992.548l5.2145 1.85c.31.11.6428.138.9668.082.3239-.056.6281-.194.8834-.401.2553-.207.4531-.476.5746-.782.1215-.305.1625-.637.1191-.962l-.8035-6.0017c-.047-.3489-.1889-.6781-.4103-.9517-.2215-.2736-.5139-.4812-.8452-.5999-.3314-.1187-.689-.144-1.0338-.0733-.3448.0708-.6636.235-.9214.4746Z"/><path fill="#CA7358" d="M148.63 96.6116s2.26-1.2936 4.201-.6468c3 1.0002 2.56 3.7942 2.56 3.7942s4.208-1.517 5.025 2.931c0 0 3.794.85 2.94 4.644 0 0 3.071.163 2.461 4.188-.61 4.024-3.294 7.368-4.908 7.368-1.667 0-2.844-1.024-2.617-4.001 0 0-2.021 2.534-4.171 1.407-2.151-1.127-1.29-3.554-1.29-3.554s-1.941 1.293-3.554-.334c-1.464-1.463-.334-3.877-.334-3.877s-2.147.877-2.907-.647c-1.617-3.231 2.83-6.705 3.554-7.752l-.96-3.5204Z"/><path stroke="#30232A" stroke-linecap="round" stroke-linejoin="round" stroke-width="1.33363" d="M147.67 109.708c2.22-2.038 6.001-5.882 7.795-9.916M151.747 114.359c3.69-3.138 6.702-6.995 8.852-11.336M157.458 116.753c1.001-1.22 4.498-5.604 6.232-9.075"/><path fill="#30232A" d="M156.832 190.959h-55.96l12.72-40.186c.376-1.183 1.119-2.215 2.121-2.948 1.003-.732 2.212-1.127 3.453-1.126h47.288c.918 0 1.824.216 2.644.631.82.416 1.53 1.018 2.073 1.76.543.741.903 1.599 1.052 2.506.149.907.082 1.836-.195 2.712l-10.519 33.23c-.316.993-.939 1.859-1.78 2.474-.841.615-1.856.947-2.897.947Z"/><path fill="#30232A" d="M68.3952 186.435c-.1651.52-.2051 1.072-.1169 1.611.0883.539.3023 1.05.6248 1.49.3225.441.7444.8 1.2314 1.047.487.247 1.0253.376 1.5714.376h85.1261c1.04-.003 2.054-.336 2.893-.952.839-.616 1.46-1.483 1.774-2.476l.334-1.096H68.3952Z"/><path fill="#FF9767" d="M148.26 165.37c-1.301-1.78-7.212 2.921-7.645 3.311-.227-.39-3.301-5.091-5.558-3.311-1.957 1.544 2.334 8.436 3.49 10.193.048.053.107.096.172.125.066.029.137.044.209.044.071 0 .142-.015.208-.044.065-.029.124-.072.172-.125 2.103-1.774 10.082-8.666 8.952-10.193Z"/><path fill="#FF9767" d="M142.858 164.112c.47-1.509.45-2.856-.044-3.01-.494-.154-1.275.944-1.745 2.452-.47 1.509-.45 2.856.044 3.01.494.154 1.275-.944 1.745-2.452ZM36.3314 154.525c.7263.28 1.5161.352 2.2814.21.7653-.143 1.476-.495 2.0529-1.017.0684.778.3532 1.522.8221 2.148.4689.625 1.1034 1.106 1.8316 1.39.7283.284 1.5213.358 2.2896.215s1.4813-.499 2.0583-1.026c.0701.778.356 1.52.8253 2.144.4694.624 1.1036 1.105 1.8312 1.388.7277.283 1.5199.357 2.2876.215.7676-.143 1.4802-.497 2.0574-1.023.0535.614.2417 1.208.5514 1.741.3096.533.733.991 1.24 1.341s1.085.585 1.6928.686c.6079.101 1.2306.067 1.8237-.1l5.0411-13.54c1.9416-5.198 2.8619-10.721 2.7106-16.267l-.5101-18.004s-11.6326.967-18.4174 9.369c-3.4808 4.311-10.3123 15.7-14.69 28.083.4601.934 1.2517 1.664 2.2205 2.047Z"/><path fill="#CA7358" d="M57.3327 162.703c-.7302-.282-1.367-.762-1.8384-1.386-.4714-.625-.7585-1.369-.8288-2.148-.5773.525-1.2898.88-2.0575 1.022-.7676.143-1.5599.069-2.2875-.214-.7277-.283-1.3619-.764-1.8312-1.388-.4694-.624-.7552-1.367-.8254-2.144-.577.527-1.2899.882-2.0582 1.025-.7683.144-1.5614.069-2.2896-.214-.7283-.284-1.3627-.766-1.8316-1.391-.469-.625-.7537-1.369-.8221-2.148-.48.437-1.0548.757-1.6793.934-.6245.178-1.2816.207-1.9196.088-.638-.12-1.2394-.387-1.757-.779-.5176-.391-.9371-.898-1.2256-1.48-3.7942 10.733-5.748 22.215-2.0738 30.481 7.9084 17.8 31.6437 11.535 37.2449 9.888 5.6013-1.647 16.4837-7.251 23.7353-6.261 7.2517.99 15.4897 4.614 16.8107 0 0 0 4.437-.113 3.04-4.334 0 0 2.231-.277 2.561-1.924.667-3.297-7.252-6.261-7.252-6.261s6.265 1 7.582-.334c1.667-1.667.047-4.357-10.186-6.838-11.2387-2.721-26.072-1.074-48.1569 2.881l2.5839-6.945c-.8699.244-1.7957.198-2.6373-.13Z"/><path stroke="#30232A" stroke-linecap="round" stroke-linejoin="round" stroke-width="1.33363" d="m65.1044 147.5-7.3783 21.538M110.138 174.306c-3.581-1.36-9.542-3.448-14.17-4.201M112.932 182.08c-4.601-2.07-13.3899-5.828-18.1176-6.535M57.4394 169.084c-2.4805.4-6.3747 1.064-10.2656 1.84M109.661 187.042c-3.451-1.757-10.7223-5.252-15.8335-6.225"/><path fill="#3EC1F3" d="M264.105 144.499s-2.62 5.895-9.495 5.895c-6.875 0-9.509-5.895-9.509-5.895s-19.338 44.21-.333 67.462h19.647c18.995-23.252-.31-67.462-.31-67.462Z"/><path fill="#30232A" d="M254.593 150.394c6.875 0 9.496-5.895 9.496-5.895h-19.005s2.631 5.895 9.509 5.895Z"/><path stroke="#F5EBDD" stroke-linecap="round" stroke-linejoin="round" stroke-width="1.33363" d="M272.354 183.857c-10.689.19-23.339 4.051-33.074 17.671M237.569 173.038c7.175-1.75 20.762-3.417 33.931-.283M271.44 195.207c-4.781.056-13.619 5.474-12.646 16.393"/><path stroke="#30232A" stroke-linecap="round" stroke-miterlimit="10" stroke-width="1.33363" d="M253.39 148.433c-.2-4.751-1.464-23.632-8.966-34.707"/><path fill="#30232A" d="M251.826 133.915c.959-1.626-4.125-6.402-11.355-10.667-7.23-4.266-13.869-6.406-14.828-4.781-.959 1.626 4.125 6.402 11.355 10.667 7.23 4.266 13.869 6.406 14.828 4.781ZM249.019 86.7962c1.407-.8026.684-4.7236-1.616-8.7579-2.301-4.0342-5.306-6.654-6.714-5.8514-1.408.8026-.684 4.7236 1.616 8.7579 2.3 4.0342 5.306 6.654 6.714 5.8514Z"/><path fill="#1E95A6" d="M224.256 103.899c.757-1.684 4.318-1.807 8.646-.517-2.668-4.7707-3.484-9.2084-1.721-10.3519 1.764-1.1436 5.492 1.3869 8.762 5.7779.577-4.4777 2.137-7.6684 4.001-7.6884 2.354 0 4.281 5.1912 4.305 11.6124.014 1.836-.149 3.67-.487 5.475-1.027-.47-2.154-.676-3.28-.6-1.127.077-2.216.433-3.169 1.038-.954.604-1.741 1.438-2.29 2.424-.55.986-.844 2.094-.857 3.222-1.726-.423-3.409-1.005-5.028-1.74-5.877-2.631-9.845-6.501-8.882-8.652Z"/><path fill="#30232A" d="M241.237 108.691c.957-.622 2.055-.992 3.193-1.075 1.138-.084 2.278.122 3.315.598-.573 2.984-1.61 5.198-2.857 5.918-1.187.863-3.701.897-6.738.167.012-1.117.3-2.214.839-3.192.539-.978 1.311-1.808 2.248-2.416Z"/><path stroke="#30232A" stroke-linecap="round" stroke-miterlimit="10" stroke-width="1.33363" d="M255.89 148.147c.92-5.248 5.711-30.977 13.38-45.534"/><path fill="#30232A" d="M295.153 138.269c.551-1.702-6.815-5.614-16.453-8.736-9.638-3.122-17.898-4.273-18.45-2.571-.551 1.703 6.815 5.615 16.453 8.737 9.638 3.122 17.898 4.273 18.45 2.57Z"/><path fill="#1E95A6" d="M267.826 80.0578c1.841-.1667 3.694 2.8773 4.691 7.2816 2.841-4.6677 6.315-7.555 8.179-6.5781 1.863.9769 1.483 5.4645-.74 10.469 4.187-1.6904 7.745-1.9038 8.668-.2968 1.16 2.0472-2.424 6.2781-8.002 9.4455-1.59.912-3.265 1.669-5.001 2.26-.095-1.123-.469-2.205-1.088-3.1481-.618-.9426-1.463-1.716-2.456-2.25-.993-.5341-2.104-.8118-3.232-.8082-1.127.0036-2.236.2885-3.226.8289-.476-1.7132-.794-3.4665-.95-5.2378-.617-6.3948.813-11.7526 3.157-11.966Z"/><path fill="#30232A" d="M271.984 97.2013c1.011.5289 1.872 1.3047 2.503 2.2553.631.9504 1.012 2.0454 1.108 3.1824-2.884.964-5.335 1.147-6.562.414-1.334-.611-2.597-2.788-3.451-5.7917.98-.5375 2.077-.8243 3.194-.8347 1.116-.0105 2.219.2556 3.208.7747Z"/><path fill="#1E95A6" d="M287.704 110.582v.026c-1.568.647-2.837 1.857-3.556 3.393-.72 1.537-.837 3.286-.33 4.905.507 1.618 1.603 2.988 3.07 3.839 1.467.85 3.2 1.12 4.857.756v.027c-8.785 2.75-16.814 2.084-17.934-1.494-1.12-3.577 5.108-8.702 13.893-11.452Z"/><path fill="#22C55E" d="M285.614 121.794c.77-.309 1.395-.897 1.75-1.648.355-.75.414-1.607.164-2.398-.25-.792-.79-1.46-1.512-1.87-.722-.41-1.572-.532-2.38-.342.222-1.093.71-2.115 1.42-2.975.711-.859 1.623-1.53 2.655-1.953l4.041 12.893c-1.085.239-2.212.209-3.282-.088-1.071-.298-2.051-.854-2.856-1.619Z"/><path fill="#30232A" d="M287.514 117.759c.247.789.189 1.641-.163 2.389-.352.747-.972 1.335-1.738 1.646-.832-.791-1.45-1.78-1.796-2.874-.345-1.095-.408-2.259-.181-3.384.808-.185 1.655-.059 2.374.353.719.412 1.256 1.08 1.504 1.87Z"/></svg>